<?xml version="1.0" encoding="utf-8" ?>
<svg baseProfile="full" height="450.0mm" version="1.1" viewBox="0 0 450.0 450.0" width="450.0mm" xmlns="http://www.w3.org/2000/svg" xmlns:ev="http://www.w3.org/2001/xml-events" xmlns:xlink="http://www.w3.org/1999/xlink"><defs />
<rect fill="rgb(0,0,0)" height="100%" width="100%" x="0" y="0" />
<g style="text-anchor:middle;fill:rgb(255,255,255);font-family:Arial;font-size:22">
   <text id="svg_3" y="86" x="75">K</text>
   <text id="svg_4" y="86" x="105">L</text>
   <text id="svg_5" y="86" x="135">O</text>
   <text id="svg_6" y="86" x="165">K</text>
   <text id="svg_7" y="86" x="195">K</text>
   <text id="svg_8" y="86" x="225">E</text>
   <text id="svg_9" y="86" x="255">N</text>
   <text id="svg_10" y="86" x="285">V</text>
   <text id="svg_11" y="86" x="315">E</text>
   <text id="svg_12" y="86" x="345">R</text>
   <text id="svg_13" y="86" x="375">O</text>
   <text id="svg_14" y="119.33333" x="75">F</text>
   <text id="svg_15" y="119.33333" x="105">E</text>
   <text id="svg_16" y="119.33333" x="135">M</text>
   <text id="svg_17" y="119.33333" x="165">T</text>
   <text id="svg_18" y="119.33333" x="195">Y</text>
   <text id="svg_19" y="119.33333" x="225">V</text>
   <text id="svg_20" y="119.33333" x="255">E</text>
   <text id="svg_21" y="119.33333" x="285">S</text>
   <text id="svg_22" y="119.33333" x="315">K</text>
   <text id="svg_23" y="119.33333" x="345">L</text>
   <text id="svg_24" y="119.33333" x="375">A</text>
   <text id="svg_25" y="152.66667" x="75">O</text>
   <text id="svg_26" y="152.66667" x="105">J</text>
   <text id="svg_27" y="152.66667" x="135">E</text>
   <text id="svg_28" y="152.66667" x="165">K</text>
   <text id="svg_29" y="152.66667" x="195">V</text>
   <text id="svg_30" y="152.66667" x="225">A</text>
   <text id="svg_31" y="152.66667" x="255">R</text>
   <text id="svg_32" y="152.66667" x="285">T</text>
   <text id="svg_33" y="152.66667" x="315">V</text>
   <text id="svg_34" y="152.66667" x="345">A</text>
   <text id="svg_35" y="152.66667" x="375">T</text>
   <text id="svg_36" y="186" x="75">T</text>
   <text id="svg_37" y="186" x="105">I</text>
   <text id="svg_38" y="186" x="135">A</text>
   <text id="svg_39" y="186" x="165">M</text>
   <text id="svg_40" y="186" x="195">I</text>
   <text id="svg_41" y="186" x="225">N</text>
   <text id="svg_42" y="186" x="255">U</text>
   <text id="svg_43" y="186" x="285">T</text>
   <text id="svg_44" y="186" x="315">T</text>
   <text id="svg_45" y="186" x="345">E</text>
   <text id="svg_46" y="186" x="375">R</text>
   <text id="svg_47" y="219.33333" x="75">V</text>
   <text id="svg_48" y="219.33333" x="105">E</text>
   <text id="svg_49" y="219.33333" x="135">M</text>
   <text id="svg_50" y="219.33333" x="165">O</text>
   <text id="svg_51" y="219.33333" x="195">V</text>
   <text id="svg_52" y="219.33333" x="225">E</text>
   <text id="svg_53" y="219.33333" x="255">R</text>
   <text id="svg_54" y="219.33333" x="285">I</text>
   <text id="svg_55" y="219.33333" x="315">L</text>
   <text id="svg_56" y="219.33333" x="345">M</text>
   <text id="svg_57" y="219.33333" x="375">F</text>
   <text id="svg_58" y="252.66667" x="75">M</text>
   <text id="svg_59" y="252.66667" x="105">O</text>
   <text id="svg_60" y="252.66667" x="135">N</text>
   <text id="svg_61" y="252.66667" x="165">A</text>
   <text id="svg_62" y="252.66667" x="195">L</text>
   <text id="svg_63" y="252.66667" x="225">I</text>
   <text id="svg_64" y="252.66667" x="255">S</text>
   <text id="svg_65" y="252.66667" x="285">H</text>
   <text id="svg_66" y="252.66667" x="315">A</text>
   <text id="svg_67" y="252.66667" x="345">L</text>
   <text id="svg_68" y="252.66667" x="375">V</text>
   <text id="svg_69" y="286" x="75">E</text>
   <text id="svg_70" y="286" x="105">T</text>
   <text id="svg_71" y="286" x="135">T</text>
   <text id="svg_72" y="286" x="165">O</text>
   <text id="svg_73" y="286" x="195">T</text>
   <text id="svg_74" y="286" x="225">R</text>
   <text id="svg_75" y="286" x="255">E</text>
   <text id="svg_76" y="286" x="285">F</text>
   <text id="svg_77" y="286" x="315">I</text>
   <text id="svg_78" y="286" x="345">R</text>
   <text id="svg_79" y="286" x="375">E</text>
   <text id="svg_80" y="319.33333" x="75">F</text>
   <text id="svg_81" y="319.33333" x="105">E</text>
   <text id="svg_82" y="319.33333" x="135">M</text>
   <text id="svg_83" y="319.33333" x="165">S</text>
   <text id="svg_84" y="319.33333" x="195">E</text>
   <text id="svg_85" y="319.33333" x="225">K</text>
   <text id="svg_86" y="319.33333" x="255">S</text>
   <text id="svg_87" y="319.33333" x="285">R</text>
   <text id="svg_88" y="319.33333" x="315">S</text>
   <text id="svg_89" y="319.33333" x="345">Y</text>
   <text id="svg_90" y="319.33333" x="375">V</text>
   <text id="svg_91" y="352.66667" x="75">O</text>
   <text id="svg_92" y="352.66667" x="105">T</text>
   <text id="svg_93" y="352.66667" x="135">T</text>
   <text id="svg_94" y="352.66667" x="165">E</text>
   <text id="svg_95" y="352.66667" x="195">R</text>
   <text id="svg_96" y="352.66667" x="225">N</text>
   <text id="svg_97" y="352.66667" x="255">I</text>
   <text id="svg_98" y="352.66667" x="285">M</text>
   <text id="svg_99" y="352.66667" x="315">E</text>
   <text id="svg_100" y="352.66667" x="345">T</text>
   <text id="svg_101" y="352.66667" x="375">I</text>
   <text id="svg_102" y="386" x="75">E</text>
   <text id="svg_103" y="386" x="105">L</text>
   <text id="svg_104" y="386" x="135">L</text>
   <text id="svg_105" y="386" x="165">E</text>
   <text id="svg_106" y="386" x="195">V</text>
   <text id="svg_107" y="386" x="225">E</text>
   <text id="svg_108" y="386" x="255">A</text>
   <text id="svg_109" y="386" x="285">T</text>
   <text id="svg_110" y="386" x="315">O</text>
   <text id="svg_111" y="386" x="345">L</text>
   <text id="svg_112" y="386" x="375">V</text>
<circle cx="430.0" cy="20.0" fill="rgb(255,255,255)" r="2.5" /><circle cx="20.0" cy="430.0" fill="rgb(255,255,255)" r="2.5" /><circle cx="430.0" cy="430.0" fill="rgb(255,255,255)" r="2.5" /></g></svg>